<?xml version="1.0" standalone="no"?>
<!DOCTYPE svg PUBLIC "-//W3C//DTD SVG 20010904//EN"
 "http://www.w3.org/TR/2001/REC-SVG-20010904/DTD/svg10.dtd">
<svg version="1.0" xmlns="http://www.w3.org/2000/svg"
 width="1261.000000pt" height="1280.000000pt" viewBox="0 0 1261.000000 1280.000000"
 preserveAspectRatio="xMidYMid meet">
<metadata>
Created by potrace 1.15, written by Peter Selinger 2001-2017
</metadata>
<g transform="translate(0.000000,1280.000000) scale(0.100000,-0.100000)"
fill="#000000" stroke="none">
<path d="M6010 11369 c-756 -72 -1387 -257 -1955 -574 -1058 -590 -1918 -1593
-2337 -2725 -81 -218 -138 -411 -189 -635 -20 -89 -24 -108 -52 -275 -16 -90
-30 -202 -47 -362 -15 -148 -12 -638 5 -812 66 -656 219 -1193 504 -1771 327
-662 759 -1210 1324 -1678 591 -490 1258 -829 2012 -1021 116 -30 171 -41 295
-61 265 -41 1015 -51 1435 -20 628 48 818 90 1380 312 335 132 675 301 780
388 44 36 136 104 206 150 230 156 452 378 758 760 290 362 440 595 611 949
349 724 450 1287 450 2508 0 451 -6 563 -43 753 l-24 120 -2344 0 -2344 0 3
-265 c1 -146 5 -368 7 -495 3 -126 10 -450 16 -720 5 -269 12 -496 14 -502 3
-10 106 -13 462 -14 510 -2 1079 -13 913 -19 -101 -3 -103 -3 -45 -11 65 -8
138 -22 198 -39 20 -5 52 -14 70 -19 179 -48 356 -174 421 -300 61 -116 67
-297 17 -436 -13 -36 -95 -199 -108 -215 -6 -8 -30 -40 -53 -70 -38 -53 -198
-220 -210 -220 -3 0 -21 -14 -40 -30 -107 -93 -325 -219 -520 -302 -224 -94
-475 -160 -760 -199 -116 -16 -531 -16 -650 0 -281 38 -527 103 -765 201 -161
66 -541 278 -575 320 -3 3 -21 17 -40 30 -19 13 -37 27 -40 30 -3 3 -15 13
-27 21 -69 47 -288 256 -388 369 -90 103 -265 346 -265 370 0 5 -3 10 -7 10
-5 0 -13 10 -19 23 -22 45 -59 112 -64 117 -9 8 -53 103 -115 245 -72 165
-153 450 -184 645 -6 36 -16 101 -23 145 -17 112 -17 593 0 720 13 96 52 302
71 375 38 147 53 194 96 305 39 102 51 128 112 250 31 61 61 120 67 132 6 13
14 23 19 23 4 0 7 4 7 10 0 8 66 118 87 145 5 6 30 40 56 77 26 36 53 72 59
80 7 7 31 36 52 63 41 51 310 325 320 325 3 0 16 10 29 23 13 12 50 42 81 67
32 25 63 50 69 55 59 51 272 182 417 257 330 169 654 267 1013 303 364 37 698
-1 1137 -131 146 -44 204 -62 224 -70 13 -5 17 -4 12 4 -4 6 16 2 43 -10 29
-11 48 -25 44 -31 -3 -6 -1 -7 6 -3 15 10 197 -87 336 -178 61 -40 150 -108
198 -152 49 -43 100 -88 113 -99 l25 -19 445 444 c644 643 974 1002 974 1059
0 41 -166 197 -365 342 -681 496 -1306 768 -2065 899 -163 28 -228 36 -478 60
-120 12 -728 11 -852 -1z m1550 -2289 c8 -5 11 -10 5 -10 -5 0 -17 5 -25 10
-8 5 -10 10 -5 10 6 0 17 -5 25 -10z m-3933 -2272 c-3 -8 -6 -5 -6 6 -1 11 2
17 5 13 3 -3 4 -12 1 -19z m-20 -240 c-2 -13 -4 -3 -4 22 0 25 2 35 4 23 2
-13 2 -33 0 -45z m0 -380 c-2 -13 -4 -3 -4 22 0 25 2 35 4 23 2 -13 2 -33 0
-45z m20 -200 c-3 -8 -6 -5 -6 6 -1 11 2 17 5 13 3 -3 4 -12 1 -19z m3210
-2514 c-3 -3 -12 -4 -19 -1 -8 3 -5 6 6 6 11 1 17 -2 13 -5z m-124 -11 c-7 -2
-19 -2 -25 0 -7 3 -2 5 12 5 14 0 19 -2 13 -5z m-335 -10 c-10 -2 -26 -2 -35
0 -10 3 -2 5 17 5 19 0 27 -2 18 -5z m175 0 c-29 -2 -77 -2 -105 0 -29 2 -6 3
52 3 58 0 81 -1 53 -3z"/>
<path d="M7620 9036 c0 -2 7 -7 16 -10 8 -3 12 -2 9 4 -6 10 -25 14 -25 6z"/>
</g>
</svg>
